<svg width="60" height="40" viewBox="0 0 60 40" fill="none" xmlns="http://www.w3.org/2000/svg">
<path d="M58.1083 6.32491C56.9097 4.34657 55.1913 2.77256 52.9964 1.66065C50.8303 0.548736 48.231 0 45.2996 0C42.3682 0 39.7834 0.548736 37.574 1.63177C35.3502 2.72924 33.5884 4.25993 32.361 6.20939C31.1336 8.15884 30.4982 10.4549 30.4982 13.0542V13.6895C30.4982 16.2888 31.1047 18.556 32.3032 20.4188C33.5018 22.2671 35.0903 23.6968 37.0397 24.6643C38.9747 25.6318 41.0686 26.1227 43.2924 26.1227C45.8339 26.1227 47.7256 25.7906 49.0541 25.083C50.1661 24.5054 51.0325 23.8989 51.6823 23.2491V26.2527C51.6823 28.231 51.1336 29.7329 49.9928 30.8448C48.8664 31.9567 47.1913 32.5199 44.9964 32.5199C42.8014 32.5199 41.2996 32.0433 40.4043 31.1047C39.4801 30.1372 39.0469 29.0108 39.0469 27.6679V26.9458H26.4404V0.722022H13.1263L0 22.9603V34.4116H18.2238V39.2491H26.4549V34.4116H32.5776C33.7617 36.2022 35.4224 37.5884 37.5307 38.5415C39.639 39.4946 42.1661 39.9856 45.0108 39.9856C47.8556 39.9856 50.426 39.4657 52.6498 38.4404C54.9025 37.4007 56.7076 35.7978 57.9928 33.6895C59.278 31.5957 59.9278 28.9386 59.9278 25.8195V13.1552C59.9278 10.5993 59.3213 8.30325 58.1227 6.32491H58.1083ZM51.6823 13.1552V13.574C51.6823 14.7437 51.4224 15.7545 50.917 16.5921C50.4115 17.4152 49.6751 18.0794 48.722 18.5415C47.7545 19.0181 46.5704 19.2635 45.1985 19.2635C43.8267 19.2635 42.6859 19.0181 41.704 18.5415C40.722 18.065 40 17.4296 39.4946 16.5921C38.9892 15.7545 38.7292 14.7437 38.7292 13.574V13.1552C38.7292 11.3791 39.278 10.0217 40.4188 9.01083C41.5596 7.98556 43.1769 7.4657 45.213 7.4657C47.2491 7.4657 48.852 7.98556 50.0072 9.01083C51.148 10.0217 51.6967 11.3791 51.6967 13.1552H51.6823ZM7.89891 26.9314V24.3032L18.2094 6.81588V26.9314H7.89891Z" fill="white"/>
</svg>
