<svg width="40" height="9" viewBox="0 0 40 9" fill="none" xmlns="http://www.w3.org/2000/svg">
<path d="M2.05398 4.50001C2.05398 4.04262 2.16619 3.62501 2.39062 3.24717C2.61506 2.86933 2.91477 2.56961 3.28977 2.34802C3.66761 2.12359 4.08523 2.01137 4.54261 2.01137C4.94034 2.01137 5.30824 2.09802 5.64631 2.27132C5.98438 2.44177 6.2642 2.67615 6.4858 2.97444C6.70739 3.27274 6.84233 3.60797 6.89062 3.98012H5.78267C5.73153 3.71592 5.58665 3.50001 5.34801 3.3324C5.11222 3.16194 4.84375 3.07672 4.54261 3.07672C4.28125 3.07672 4.04261 3.14064 3.8267 3.26848C3.6108 3.39632 3.43892 3.56819 3.31108 3.7841C3.18324 3.99717 3.11932 4.23581 3.11932 4.50001C3.11932 4.76137 3.18324 5.00001 3.31108 5.21592C3.43892 5.43183 3.6108 5.6037 3.8267 5.73155C4.04261 5.85939 4.28125 5.92331 4.54261 5.92331C4.84375 5.92331 5.10085 5.8395 5.31392 5.67189C5.52699 5.50143 5.66051 5.2841 5.71449 5.0199H6.82244C6.77415 5.39206 6.64489 5.72728 6.43466 6.02558C6.22443 6.32387 5.95597 6.55967 5.62926 6.73297C5.30256 6.90342 4.94034 6.98865 4.54261 6.98865C4.08523 6.98865 3.66761 6.87785 3.28977 6.65626C2.91477 6.43183 2.61506 6.13069 2.39062 5.75285C2.16619 5.37501 2.05398 4.9574 2.05398 4.50001ZM4.50426 9.00001C3.88494 9.00001 3.30256 8.88353 2.7571 8.65058C2.21449 8.41762 1.7358 8.09518 1.32102 7.68325C0.909091 7.26848 0.585227 6.78978 0.349432 6.24717C0.116477 5.70456 0.00142047 5.12217 0.0042614 4.50001C0.00710228 3.87785 0.125 3.29547 0.357955 2.75285C0.59375 2.21024 0.917614 1.73297 1.32955 1.32103C1.74148 0.906261 2.21875 0.582397 2.76136 0.349443C3.30398 0.116488 3.88494 1.09673e-05 4.50426 1.09673e-05C5.12642 1.09673e-05 5.70881 0.116488 6.25142 0.349443C6.79688 0.582397 7.27415 0.906261 7.68324 1.32103C8.09517 1.73297 8.41761 2.21024 8.65057 2.75285C8.88352 3.29547 9.00142 3.87785 9.00426 4.50001C9.0071 5.12217 8.89205 5.70456 8.65909 6.24717C8.42614 6.78978 8.10369 7.26848 7.69176 7.68325C7.27983 8.09518 6.80114 8.41762 6.25568 8.65058C5.71023 8.88353 5.12642 9.00001 4.50426 9.00001ZM4.50426 7.86649C4.97017 7.86649 5.40767 7.77984 5.81676 7.60655C6.22585 7.43325 6.58381 7.19319 6.89062 6.88637C7.20028 6.57672 7.44176 6.21876 7.61506 5.81251C7.78835 5.40342 7.87358 4.96734 7.87074 4.50427C7.87074 4.03836 7.78267 3.60086 7.60653 3.19177C7.43324 2.78268 7.19176 2.42473 6.8821 2.11791C6.57528 1.80825 6.21875 1.56677 5.8125 1.39348C5.40625 1.22018 4.97017 1.13353 4.50426 1.13353C4.04119 1.13353 3.60653 1.22018 3.20028 1.39348C2.79403 1.56677 2.43608 1.80825 2.12642 2.11791C1.8196 2.42757 1.57813 2.78694 1.40199 3.19603C1.22585 3.60228 1.13778 4.03836 1.13778 4.50427C1.13494 4.9645 1.22017 5.39916 1.39347 5.80825C1.5696 6.2145 1.81108 6.57245 2.1179 6.88211C2.42756 7.18893 2.78551 7.43041 3.19176 7.60655C3.60085 7.77984 4.03835 7.86649 4.50426 7.86649ZM10.8356 8.86365V7.9091L13.7887 4.84944C14.104 4.51706 14.364 4.22586 14.5685 3.97586C14.7759 3.72302 14.9308 3.48297 15.033 3.25569C15.1353 3.02842 15.1864 2.78694 15.1864 2.53126C15.1864 2.24149 15.1183 1.99149 14.9819 1.78126C14.8455 1.56819 14.6594 1.40484 14.4237 1.2912C14.1879 1.17473 13.9222 1.11649 13.6268 1.11649C13.3143 1.11649 13.0415 1.18041 12.8086 1.30825C12.5756 1.43609 12.3967 1.61649 12.2717 1.84944C12.1467 2.0824 12.0842 2.35512 12.0842 2.66762H10.8271C10.8271 2.13637 10.9492 1.67189 11.1935 1.27416C11.4379 0.876431 11.7731 0.568193 12.1992 0.349443C12.6254 0.127852 13.1097 0.0170562 13.6523 0.0170562C14.2006 0.0170562 14.6836 0.126431 15.1012 0.345181C15.5217 0.56109 15.8498 0.856545 16.0856 1.23154C16.3214 1.6037 16.4393 2.02416 16.4393 2.49291C16.4393 2.81677 16.3782 3.13353 16.256 3.44319C16.1367 3.75285 15.9279 4.09802 15.6296 4.4787C15.3313 4.85655 14.9165 5.31535 14.3853 5.85512L12.6509 7.67047V7.73439H16.5799V8.86365H10.8356ZM21.2333 9.00853C20.56 9.00569 19.9847 8.82814 19.5075 8.47586C19.0302 8.12359 18.6651 7.61081 18.4123 6.93751C18.1594 6.26422 18.033 5.45314 18.033 4.50427C18.033 3.55825 18.1594 2.75001 18.4123 2.07956C18.668 1.4091 19.0344 0.897738 19.5117 0.545466C19.9918 0.193193 20.5657 0.0170562 21.2333 0.0170562C21.9009 0.0170562 22.4734 0.194613 22.9506 0.549726C23.4279 0.901999 23.793 1.41336 24.0458 2.08382C24.3015 2.75143 24.4293 3.55825 24.4293 4.50427C24.4293 5.45598 24.3029 6.26848 24.0501 6.94177C23.7972 7.61223 23.4322 8.12501 22.9549 8.48012C22.4776 8.8324 21.9038 9.00853 21.2333 9.00853ZM21.2333 7.87075C21.8242 7.87075 22.2859 7.5824 22.6183 7.00569C22.9535 6.42899 23.1211 5.59518 23.1211 4.50427C23.1211 3.77984 23.0444 3.16762 22.891 2.66762C22.7404 2.16478 22.5231 1.7841 22.239 1.52558C21.9577 1.26422 21.6225 1.13353 21.2333 1.13353C20.6452 1.13353 20.1836 1.42331 19.8484 2.00285C19.5131 2.5824 19.3441 3.4162 19.3413 4.50427C19.3413 5.23155 19.4165 5.8466 19.5671 6.34944C19.7205 6.84944 19.9379 7.2287 20.2191 7.48723C20.5004 7.74291 20.8384 7.87075 21.2333 7.87075ZM25.9411 8.86365V7.9091L28.8942 4.84944C29.2095 4.51706 29.4695 4.22586 29.674 3.97586C29.8814 3.72302 30.0362 3.48297 30.1385 3.25569C30.2408 3.02842 30.2919 2.78694 30.2919 2.53126C30.2919 2.24149 30.2237 1.99149 30.0874 1.78126C29.951 1.56819 29.7649 1.40484 29.5291 1.2912C29.2933 1.17473 29.0277 1.11649 28.7322 1.11649C28.4197 1.11649 28.147 1.18041 27.9141 1.30825C27.6811 1.43609 27.5021 1.61649 27.3771 1.84944C27.2521 2.0824 27.1896 2.35512 27.1896 2.66762H25.9325C25.9325 2.13637 26.0547 1.67189 26.299 1.27416C26.5433 0.876431 26.8786 0.568193 27.3047 0.349443C27.7308 0.127852 28.2152 0.0170562 28.7578 0.0170562C29.3061 0.0170562 29.7891 0.126431 30.2067 0.345181C30.6271 0.56109 30.9553 0.856545 31.1911 1.23154C31.4268 1.6037 31.5447 2.02416 31.5447 2.49291C31.5447 2.81677 31.4837 3.13353 31.3615 3.44319C31.2422 3.75285 31.0334 4.09802 30.7351 4.4787C30.4368 4.85655 30.022 5.31535 29.4908 5.85512L27.7564 7.67047V7.73439H31.6854V8.86365H25.9411ZM36.3473 8.98297C35.9581 8.97728 35.5746 8.90626 35.1967 8.7699C34.8217 8.63353 34.4808 8.40626 34.174 8.08808C33.8672 7.7699 33.6214 7.34234 33.4368 6.80541C33.255 6.26848 33.1641 5.59802 33.1641 4.79405C33.1641 4.03268 33.2393 3.35654 33.3899 2.76564C33.5433 2.17473 33.7635 1.67615 34.0504 1.2699C34.3374 0.860806 34.6839 0.549727 35.0902 0.336658C35.4964 0.12359 35.9524 0.0170562 36.4581 0.0170562C36.978 0.0170562 37.4396 0.119329 37.843 0.323874C38.2464 0.52842 38.5732 0.81109 38.8232 1.17189C39.076 1.53268 39.2365 1.94319 39.3047 2.40342H38.005C37.9169 2.03978 37.7422 1.74291 37.4808 1.51279C37.2195 1.28268 36.8786 1.16762 36.4581 1.16762C35.8189 1.16762 35.3203 1.44603 34.9624 2.00285C34.6072 2.55967 34.4283 3.33382 34.4254 4.3253H34.4893C34.6399 4.07814 34.8246 3.86791 35.0433 3.69461C35.2649 3.51848 35.5121 3.38353 35.7848 3.28978C36.0604 3.19319 36.3501 3.1449 36.6541 3.1449C37.1598 3.1449 37.6172 3.26848 38.0263 3.51564C38.4382 3.75995 38.7663 4.09802 39.0107 4.52984C39.255 4.96166 39.3771 5.45598 39.3771 6.0128C39.3771 6.56961 39.2507 7.07387 38.9979 7.52558C38.7479 7.97728 38.3956 8.33524 37.9411 8.59944C37.4865 8.86081 36.9553 8.98865 36.3473 8.98297ZM36.343 7.87501C36.6783 7.87501 36.978 7.79262 37.2422 7.62785C37.5064 7.46308 37.7152 7.24149 37.8686 6.96308C38.022 6.68467 38.0987 6.37359 38.0987 6.02984C38.0987 5.69461 38.0234 5.38922 37.8729 5.11365C37.7251 4.83808 37.5206 4.61933 37.2592 4.4574C37.0007 4.29547 36.7053 4.2145 36.3729 4.2145C36.12 4.2145 35.8857 4.26279 35.6697 4.35939C35.4567 4.45598 35.2692 4.5895 35.1072 4.75995C34.9453 4.93041 34.8175 5.12643 34.7237 5.34802C34.6328 5.56677 34.5874 5.79831 34.5874 6.04262C34.5874 6.36933 34.6626 6.67189 34.8132 6.9503C34.9666 7.2287 35.1754 7.45314 35.4396 7.62359C35.7067 7.7912 36.0078 7.87501 36.343 7.87501Z" fill="white"/>
</svg>
