<svg width="100" height="100" viewBox="0 0 100 100" fill="none" xmlns="http://www.w3.org/2000/svg">
<path d="M94.1157 28.8071C92.2157 25.7396 89.4916 23.299 86.012 21.5749C82.5783 19.8508 78.4578 19 73.8109 19C69.1639 19 65.0663 19.8508 61.5638 21.5302C58.0385 23.2319 55.2458 25.6053 53.3 28.628C51.3542 31.6508 50.347 35.2109 50.347 39.2412V40.2264C50.347 44.2568 51.3084 47.7721 53.2084 50.6605C55.1084 53.5265 57.6265 55.7432 60.7169 57.2434C63.7843 58.7436 67.1036 59.5049 70.6289 59.5049C74.6578 59.5049 77.6566 58.9899 79.7627 57.8927C81.5253 56.9971 82.8988 56.0567 83.9289 55.0491V59.7064C83.9289 62.7739 83.059 65.1026 81.2506 66.8267C79.4651 68.5507 76.8096 69.424 73.3301 69.424C69.8506 69.424 67.4699 68.6851 66.0506 67.2297C64.5855 65.7295 63.8988 63.983 63.8988 61.9007V60.7811H43.9145V20.1195H22.8084L2 54.6013V72.3572H30.8892V79.8581H43.9373V72.3572H53.6434C55.5205 75.1336 58.153 77.2831 61.4952 78.7609C64.8373 80.2387 68.8434 81 73.353 81C77.8626 81 81.9373 80.1939 85.4627 78.6042C89.0337 76.9921 91.8952 74.5067 93.9325 71.2376C95.9699 67.991 97 63.8711 97 59.0347V39.398C97 35.4348 96.0386 31.8747 94.1386 28.8071H94.1157ZM83.9289 39.398V40.0473C83.9289 41.861 83.5169 43.4283 82.7157 44.727C81.9145 46.0032 80.747 47.0332 79.2361 47.7497C77.7024 48.4886 75.8253 48.8693 73.6506 48.8693C71.4759 48.8693 69.6675 48.4886 68.1108 47.7497C66.5542 47.0108 65.4096 46.0256 64.6084 44.727C63.8072 43.4283 63.3952 41.861 63.3952 40.0473V39.398C63.3952 36.6439 64.2651 34.5392 66.0735 32.9718C67.8819 31.3821 70.4458 30.576 73.6735 30.576C76.9012 30.576 79.4422 31.3821 81.2735 32.9718C83.0819 34.5392 83.9518 36.6439 83.9518 39.398H83.9289ZM14.5217 60.7588V56.6836L30.8663 29.5684V60.7588H14.5217Z" fill="#111111"/>
</svg>
