<svg width="100" height="100" viewBox="0 0 100 100" fill="none" xmlns="http://www.w3.org/2000/svg">
<g clip-path="url(#clip0_70_1980)">
<path d="M23.3827 48.8736C22.1575 48.3365 20.6926 47.8859 19.0412 47.5394L18.2866 47.3834C17.4076 47.2014 16.6796 46.9848 16.1292 46.7422C15.6143 46.517 15.2325 46.2484 14.9839 45.9278C14.7442 45.6245 14.6377 45.252 14.6377 44.7928C14.6377 44.0996 14.8862 43.5711 15.3923 43.1812C15.925 42.7653 16.8039 42.5574 18.0025 42.5574C18.8104 42.5574 19.5118 42.67 20.0889 42.8953C20.6304 43.1032 21.0388 43.4238 21.3229 43.8657C21.6159 44.3162 21.758 44.9227 21.758 45.6852V47.0715H26.8807V45.6852C26.8807 43.9957 26.49 42.5661 25.7176 41.4224C24.9452 40.2874 23.871 39.4209 22.5304 38.8491C21.2075 38.2859 19.6893 38 18.0025 38C16.3156 38 14.833 38.2773 13.5723 38.8144C12.2938 39.369 11.2906 40.1661 10.5803 41.1971C9.87006 42.2282 9.51494 43.4845 9.51494 44.9141C9.51494 46.3437 9.84343 47.548 10.4915 48.4664C11.1308 49.3762 12.0541 50.1126 13.2349 50.6671C14.3802 51.1957 15.7652 51.6462 17.3544 51.9841L18.1001 52.1401C19.0412 52.3394 19.858 52.5646 20.5328 52.8072C21.1454 53.0238 21.6159 53.3011 21.9178 53.6303C22.2019 53.9336 22.335 54.3235 22.335 54.8347C22.335 55.5971 22.0332 56.2036 21.4117 56.6888C20.7636 57.1913 19.7515 57.4513 18.3842 57.4513C17.017 57.4513 15.9694 57.148 15.2147 56.5502C14.469 55.961 14.105 55.0946 14.105 53.8816V52.556H9V53.8816C9 55.5711 9.4084 57.044 10.2074 58.2484C11.0065 59.4527 12.134 60.3971 13.5545 61.0383C14.9573 61.6794 16.582 62 18.402 62C20.222 62 21.8201 61.6967 23.1607 61.0816C24.5191 60.4664 25.5933 59.6087 26.3391 58.517C27.0938 57.4253 27.4755 56.1343 27.4755 54.7047C27.4755 53.2751 27.1026 52.0534 26.3746 51.109C25.6555 50.1906 24.6523 49.4368 23.3827 48.8823V48.8736Z" fill="#111111"/>
<path d="M52.6519 48.8H29.9037V53.6H52.6519V48.8Z" fill="#111111"/>
<path d="M90.837 41.7949C90.1001 40.6079 89.0436 39.6635 87.6941 38.9964C86.3623 38.3292 84.7643 38 82.962 38C81.1597 38 79.5705 38.3292 78.2122 38.9791C76.8449 39.6375 75.7618 40.556 75.0071 41.7256C74.2525 42.8953 73.8619 44.2729 73.8619 45.8325V46.2137C73.8619 47.7733 74.2347 49.1336 74.9716 50.2513C75.7085 51.3603 76.6851 52.218 77.8837 52.7986C79.0734 53.3791 80.3607 53.6736 81.7279 53.6736C83.2905 53.6736 84.4535 53.4744 85.2703 53.0498C85.954 52.7032 86.4866 52.3393 86.8862 51.9495V53.7516C86.8862 54.9386 86.5488 55.8397 85.8474 56.5069C85.1549 57.174 84.125 57.5119 82.7756 57.5119C81.4261 57.5119 80.5027 57.226 79.9523 56.6628C79.3841 56.0823 79.1177 55.4065 79.1177 54.6007V54.1675H71.3671V38.4332H63.1814L55.1111 51.7762V58.6469H66.3154V61.5495H71.376V58.6469H75.1403C75.8683 59.7213 76.8893 60.5531 78.1855 61.1249C79.4817 61.6967 81.0354 61.9913 82.7844 61.9913C84.5334 61.9913 86.1138 61.6794 87.481 61.0643C88.866 60.4404 89.9758 59.4787 90.7659 58.2137C91.5561 56.9574 91.9556 55.3632 91.9556 53.4917V45.8931C91.9556 44.3596 91.5827 42.9819 90.8458 41.7949H90.837ZM86.8862 45.8931V46.1444C86.8862 46.8462 86.7264 47.4527 86.4156 47.9552C86.1049 48.4491 85.6521 48.8477 85.0661 49.1249C84.4713 49.4108 83.7433 49.5581 82.8998 49.5581C82.0564 49.5581 81.355 49.4108 80.7513 49.1249C80.1476 48.839 79.7037 48.4578 79.393 47.9552C79.0822 47.4527 78.9224 46.8462 78.9224 46.1444V45.8931C78.9224 44.8274 79.2598 44.013 79.9612 43.4065C80.6625 42.7913 81.6569 42.4794 82.9087 42.4794C84.1606 42.4794 85.146 42.7913 85.8563 43.4065C86.5577 44.013 86.895 44.8274 86.895 45.8931H86.8862ZM59.9675 54.1588V52.5819L66.3065 42.0895V54.1588H59.9675Z" fill="#111111"/>
</g>
<defs>
<clipPath id="clip0_70_1980">
<rect width="83" height="24" fill="white" transform="translate(9 38)"/>
</clipPath>
</defs>
</svg>
