<svg width="100" height="100" viewBox="0 0 100 100" fill="none" xmlns="http://www.w3.org/2000/svg">
<path d="M95.1157 28.8071C93.2157 25.7396 90.4916 23.299 87.012 21.5749C83.5783 19.8508 79.4578 19 74.8109 19C70.1639 19 66.0663 19.8508 62.5638 21.5302C59.0385 23.2319 56.2458 25.6053 54.3 28.628C52.3542 31.6508 51.347 35.2109 51.347 39.2412V40.2264C51.347 44.2568 52.3084 47.7721 54.2084 50.6605C56.1084 53.5265 58.6265 55.7432 61.7169 57.2434C64.7843 58.7436 68.1036 59.5049 71.6289 59.5049C75.6578 59.5049 78.6566 58.9899 80.7627 57.8927C82.5253 56.9971 83.8988 56.0567 84.9289 55.0491V59.7064C84.9289 62.7739 84.059 65.1026 82.2506 66.8267C80.4651 68.5507 77.8096 69.424 74.3301 69.424C70.8506 69.424 68.4699 68.6851 67.0506 67.2297C65.5855 65.7295 64.8988 63.983 64.8988 61.9007V60.7811H44.9145V20.1195H23.8084L3 54.6013V72.3572H31.8892V79.8581H44.9373V72.3572H54.6434C56.5205 75.1336 59.153 77.2831 62.4952 78.7609C65.8373 80.2387 69.8434 81 74.353 81C78.8626 81 82.9373 80.1939 86.4627 78.6042C90.0337 76.9921 92.8952 74.5067 94.9325 71.2376C96.9699 67.991 98 63.8711 98 59.0347V39.398C98 35.4348 97.0386 31.8747 95.1386 28.8071H95.1157ZM84.9289 39.398V40.0473C84.9289 41.861 84.5169 43.4283 83.7157 44.727C82.9145 46.0032 81.747 47.0332 80.2361 47.7497C78.7024 48.4886 76.8253 48.8693 74.6506 48.8693C72.4759 48.8693 70.6675 48.4886 69.1108 47.7497C67.5542 47.0108 66.4096 46.0256 65.6084 44.727C64.8072 43.4283 64.3952 41.861 64.3952 40.0473V39.398C64.3952 36.6439 65.2651 34.5392 67.0735 32.9718C68.8819 31.3821 71.4458 30.576 74.6735 30.576C77.9012 30.576 80.4422 31.3821 82.2735 32.9718C84.0819 34.5392 84.9518 36.6439 84.9518 39.398H84.9289ZM15.5217 60.7588V56.6836L31.8663 29.5684V60.7588H15.5217Z" fill="white"/>
</svg>
