<svg width="1080" height="1080" viewBox="0 0 1080 1080" fill="none" xmlns="http://www.w3.org/2000/svg">
<rect width="1080" height="1080" fill="black"/>
<g clip-path="url(#clip0_13_13)">
<path d="M318.543 531.313C309.382 527.197 298.429 523.745 286.081 521.089L280.438 519.895C273.866 518.5 268.423 516.841 264.307 514.982C260.457 513.256 257.602 511.198 255.743 508.742C253.951 506.418 253.154 503.564 253.154 500.046C253.154 494.735 255.013 490.685 258.797 487.698C262.78 484.512 269.352 482.918 278.314 482.918C284.355 482.918 289.599 483.781 293.914 485.507C297.964 487.101 301.018 489.557 303.142 492.942C305.333 496.394 306.395 501.041 306.395 506.883V517.505H344.699V506.883C344.699 493.938 341.778 482.985 336.002 474.222C330.227 465.526 322.194 458.887 312.17 454.506C302.279 450.191 290.927 448 278.314 448C265.701 448 254.615 450.124 245.188 454.24C235.629 458.489 228.127 464.596 222.816 472.496C217.506 480.396 214.85 490.021 214.85 500.975C214.85 511.928 217.307 521.156 222.153 528.193C226.932 535.163 233.836 540.806 242.665 545.054C251.229 549.104 261.585 552.556 273.468 555.145L279.044 556.34C286.081 557.867 292.188 559.593 297.234 561.451C301.814 563.111 305.333 565.235 307.59 567.758C309.714 570.081 310.71 573.069 310.71 576.985C310.71 582.827 308.453 587.474 303.806 591.192C298.96 595.042 291.392 597.033 281.169 597.033C270.945 597.033 263.112 594.71 257.469 590.129C251.893 585.615 249.171 578.977 249.171 569.683V559.526H211V569.683C211 582.628 214.054 593.913 220.028 603.141C226.003 612.368 234.434 619.604 245.055 624.517C255.544 629.429 267.692 631.885 281.301 631.885C294.91 631.885 306.859 629.562 316.883 624.849C327.04 620.135 335.073 613.563 340.649 605.199C346.292 596.834 349.146 586.943 349.146 575.99C349.146 565.036 346.358 555.676 340.915 548.44C335.538 541.403 328.036 535.628 318.543 531.379V531.313Z" fill="white"/>
<path d="M578.372 531.777H366.871V566.165H578.372V531.777Z" fill="white"/>
<path d="M861.768 477.143C856.258 468.048 848.359 460.812 838.268 455.701C828.31 450.589 816.361 448.066 802.885 448.066C789.409 448.066 777.526 450.589 767.369 455.568C757.146 460.613 749.047 467.65 743.405 476.612C737.762 485.574 734.841 496.129 734.841 508.078V510.999C734.841 522.948 737.629 533.371 743.139 541.934C748.649 550.431 755.951 557.004 764.913 561.451C773.809 565.899 783.434 568.156 793.658 568.156C805.341 568.156 814.038 566.629 820.145 563.376C825.257 560.721 829.24 557.933 832.227 554.946V568.754C832.227 577.848 829.705 584.752 824.46 589.864C819.282 594.976 811.582 597.565 801.491 597.565C791.401 597.565 784.497 595.374 780.381 591.059C776.132 586.611 774.141 581.433 774.141 575.259V571.94H716.187V451.386H654.98L594.637 553.618V606.261H678.414V628.5H716.253V606.261H744.4C749.844 614.493 757.478 620.866 767.17 625.247C776.862 629.628 788.48 631.885 801.557 631.885C814.635 631.885 826.452 629.496 836.675 624.782C847.031 620.003 855.329 612.634 861.237 602.942C867.145 593.316 870.133 581.101 870.133 566.762V508.543C870.133 496.793 867.345 486.238 861.835 477.143H861.768ZM832.227 508.543V510.468C832.227 515.845 831.032 520.492 828.709 524.342C826.385 528.126 823 531.18 818.618 533.304C814.171 535.495 808.727 536.623 802.42 536.623C796.114 536.623 790.87 535.495 786.355 533.304C781.841 531.114 778.522 528.193 776.199 524.342C773.875 520.492 772.68 515.845 772.68 510.468V508.543C772.68 500.377 775.203 494.137 780.447 489.49C785.692 484.777 793.127 482.387 802.487 482.387C811.847 482.387 819.216 484.777 824.527 489.49C829.771 494.137 832.294 500.377 832.294 508.543H832.227ZM630.949 571.874V559.792L678.348 479.4V571.874H630.949Z" fill="white"/>
</g>
<defs>
<clipPath id="clip0_13_13">
<rect width="659" height="183.885" fill="white" transform="translate(211 448)"/>
</clipPath>
</defs>
</svg>
