<svg width="31" height="40" viewBox="0 0 31 40" fill="none" xmlns="http://www.w3.org/2000/svg">
<path d="M23.3935 18.1227C21.4007 17.2274 19.0181 16.4765 16.3321 15.8989L15.1047 15.639C13.6751 15.3357 12.491 14.9747 11.5957 14.5704C10.7581 14.1949 10.1372 13.7473 9.73285 13.213C9.34296 12.7076 9.16967 12.0866 9.16967 11.3213C9.16967 10.1661 9.57401 9.2852 10.3971 8.63538C11.2635 7.94224 12.6931 7.59567 14.6426 7.59567C15.9567 7.59567 17.0975 7.78339 18.0361 8.15884C18.917 8.50541 19.5812 9.03971 20.0433 9.77617C20.5199 10.5271 20.7509 11.5379 20.7509 12.8087V15.1191H29.083V12.8087C29.083 9.99278 28.4477 7.61011 27.1913 5.70397C25.935 3.81227 24.1877 2.36823 22.0072 1.41516C19.8556 0.476534 17.3863 0 14.6426 0C11.8989 0 9.48736 0.462094 7.43682 1.3574C5.3574 2.28159 3.72563 3.61011 2.5704 5.32852C1.41516 7.04693 0.837545 9.14079 0.837545 11.5235C0.837545 13.9061 1.37184 15.9134 2.42599 17.444C3.4657 18.9603 4.96751 20.1877 6.88809 21.1119C8.7509 21.9928 11.0036 22.7437 13.5884 23.3069L14.8014 23.5668C16.3321 23.8989 17.6606 24.2744 18.7581 24.6787C19.7545 25.0397 20.5199 25.5018 21.0108 26.0505C21.4729 26.556 21.6895 27.2058 21.6895 28.0578C21.6895 29.3285 21.1986 30.3393 20.1877 31.148C19.1336 31.9856 17.4874 32.4188 15.2635 32.4188C13.0397 32.4188 11.3357 31.9134 10.1083 30.917C8.89531 29.935 8.30325 28.491 8.30325 26.4693V24.2599H0V26.4693C0 29.2852 0.66426 31.7401 1.9639 33.7473C3.26354 35.7545 5.09747 37.3285 7.40794 38.3971C9.68953 39.4657 12.3321 40 15.2924 40C18.2527 40 20.852 39.4946 23.0325 38.4693C25.2419 37.444 26.9892 36.0144 28.2022 34.1949C29.4296 32.3755 30.0505 30.2238 30.0505 27.8412C30.0505 25.4585 29.444 23.4224 28.2599 21.8484C27.0903 20.3177 25.4585 19.0614 23.3935 18.1372V18.1227Z" fill="white"/>
</svg>
